<svg width="16" height="16" viewBox="0 0 16 16" fill="none" xmlns="http://www.w3.org/2000/svg">
<path d="M10.7933 1.33337H5.20668C2.78001 1.33337 1.33334 2.78004 1.33334 5.20671V10.7867C1.33334 13.22 2.78001 14.6667 5.20668 14.6667H10.7867C13.2133 14.6667 14.66 13.22 14.66 10.7934V5.20671C14.6667 2.78004 13.22 1.33337 10.7933 1.33337ZM5.08668 12.1C5.08668 12.3734 4.86001 12.6 4.58668 12.6C4.31334 12.6 4.08668 12.3734 4.08668 12.1V10.72C4.08668 10.4467 4.31334 10.22 4.58668 10.22C4.86001 10.22 5.08668 10.4467 5.08668 10.72V12.1ZM8.50001 12.1C8.50001 12.3734 8.27334 12.6 8.00001 12.6C7.72668 12.6 7.50001 12.3734 7.50001 12.1V9.33337C7.50001 9.06004 7.72668 8.83337 8.00001 8.83337C8.27334 8.83337 8.50001 9.06004 8.50001 9.33337V12.1ZM11.9133 12.1C11.9133 12.3734 11.6867 12.6 11.4133 12.6C11.14 12.6 10.9133 12.3734 10.9133 12.1V7.95337C10.9133 7.68004 11.14 7.45337 11.4133 7.45337C11.6867 7.45337 11.9133 7.68004 11.9133 7.95337V12.1ZM11.9133 5.84671C11.9133 6.12004 11.6867 6.34671 11.4133 6.34671C11.14 6.34671 10.9133 6.12004 10.9133 5.84671V5.20004C9.21334 6.94671 7.08668 8.18004 4.70668 8.77337C4.66668 8.78671 4.62668 8.78671 4.58668 8.78671C4.36001 8.78671 4.16001 8.63337 4.10001 8.40671C4.03334 8.14004 4.19334 7.86671 4.46668 7.80004C6.71334 7.24004 8.71334 6.06004 10.3 4.39337H9.46668C9.19334 4.39337 8.96668 4.16671 8.96668 3.89337C8.96668 3.62004 9.19334 3.39337 9.46668 3.39337H11.42C11.4467 3.39337 11.4667 3.40671 11.4933 3.40671C11.5267 3.41337 11.56 3.41337 11.5933 3.42671C11.6267 3.44004 11.6533 3.46004 11.6867 3.48004C11.7067 3.49337 11.7267 3.50004 11.7467 3.51337C11.7533 3.52004 11.7533 3.52671 11.76 3.52671C11.7867 3.55337 11.8067 3.58004 11.8267 3.60671C11.8467 3.63337 11.8667 3.65337 11.8733 3.68004C11.8867 3.70671 11.8867 3.73337 11.8933 3.76671C11.9 3.80004 11.9133 3.83337 11.9133 3.87337C11.9133 3.88004 11.92 3.88671 11.92 3.89337V5.84671H11.9133Z" fill="#0F191A"/>
</svg>
