<svg width="16" height="16" viewBox="0 0 16 16" fill="none" xmlns="http://www.w3.org/2000/svg">
<path d="M11.6867 5.18004C11.64 5.17337 11.5933 5.17337 11.5467 5.18004C10.5133 5.14671 9.69333 4.30004 9.69333 3.26004C9.69333 2.20004 10.5533 1.33337 11.62 1.33337C12.68 1.33337 13.5467 2.19337 13.5467 3.26004C13.54 4.30004 12.72 5.14671 11.6867 5.18004Z" fill="#0F191A"/>
<path d="M13.86 9.80002C13.1133 10.3 12.0666 10.4867 11.1 10.36C11.3533 9.81336 11.4866 9.20669 11.4933 8.56669C11.4933 7.90003 11.3467 7.26669 11.0667 6.71336C12.0533 6.58002 13.1 6.76669 13.8533 7.26669C14.9067 7.96002 14.9067 9.10002 13.86 9.80002Z" fill="#0F191A"/>
<path d="M4.29331 5.18004C4.33997 5.17337 4.38664 5.17337 4.43331 5.18004C5.46664 5.14671 6.28664 4.30004 6.28664 3.26004C6.28664 2.19337 5.42664 1.33337 4.35997 1.33337C3.29997 1.33337 2.43997 2.19337 2.43997 3.26004C2.43997 4.30004 3.25997 5.14671 4.29331 5.18004Z" fill="#0F191A"/>
<path d="M4.36665 8.5667C4.36665 9.21336 4.50665 9.8267 4.75999 10.38C3.81999 10.48 2.83999 10.28 2.11999 9.8067C1.06665 9.1067 1.06665 7.96669 2.11999 7.26669C2.83332 6.78669 3.83999 6.59336 4.78665 6.70003C4.51332 7.26003 4.36665 7.89336 4.36665 8.5667Z" fill="#0F191A"/>
<path d="M8.07998 10.58C8.02665 10.5733 7.96665 10.5733 7.90665 10.58C6.67998 10.54 5.69998 9.53333 5.69998 8.29333C5.70665 7.02667 6.72665 6 7.99998 6C9.26665 6 10.2933 7.02667 10.2933 8.29333C10.2866 9.53333 9.31331 10.54 8.07998 10.58Z" fill="#0F191A"/>
<path d="M5.91333 11.96C4.90666 12.6333 4.90666 13.74 5.91333 14.4067C7.05999 15.1733 8.93999 15.1733 10.0867 14.4067C11.0933 13.7333 11.0933 12.6267 10.0867 11.96C8.94666 11.1933 7.06666 11.1933 5.91333 11.96Z" fill="#0F191A"/>
</svg>
