<svg width="32" height="32" viewBox="0 0 32 32" fill="none" xmlns="http://www.w3.org/2000/svg">
<path d="M25.7866 19.3201L24.4533 17.1067C24.1733 16.6134 23.92 15.6801 23.92 15.1334V11.7601C23.92 8.62675 22.08 5.92008 19.4266 4.65341C18.7333 3.42675 17.4533 2.66675 15.9866 2.66675C14.5333 2.66675 13.2266 3.45341 12.5333 4.69341C9.9333 5.98675 8.1333 8.66675 8.1333 11.7601V15.1334C8.1333 15.6801 7.87996 16.6134 7.59996 17.0934L6.2533 19.3201C5.71996 20.2134 5.59996 21.2001 5.9333 22.1067C6.2533 23.0001 7.0133 23.6934 7.99996 24.0267C10.5866 24.9067 13.3066 25.3334 16.0266 25.3334C18.7466 25.3334 21.4666 24.9067 24.0533 24.0401C24.9866 23.7334 25.7066 23.0267 26.0533 22.1067C26.4 21.1867 26.3066 20.1734 25.7866 19.3201Z" fill="#0F191A"/>
<path d="M19.7734 26.6801C19.2134 28.2267 17.7334 29.3334 16.0001 29.3334C14.9468 29.3334 13.9068 28.9067 13.1734 28.1467C12.7468 27.7467 12.4268 27.2134 12.2401 26.6667C12.4134 26.6934 12.5868 26.7067 12.7734 26.7334C13.0801 26.7734 13.4001 26.8134 13.7201 26.8401C14.4801 26.9067 15.2534 26.9467 16.0268 26.9467C16.7868 26.9467 17.5468 26.9067 18.2934 26.8401C18.5734 26.8134 18.8534 26.8001 19.1201 26.7601C19.3334 26.7334 19.5468 26.7067 19.7734 26.6801Z" fill="#0F191A"/>
</svg>
