<svg width="16" height="16" viewBox="0 0 16 16" fill="none" xmlns="http://www.w3.org/2000/svg">
<path d="M13.0067 3.90004L9.04666 1.61337C8.39999 1.24004 7.59999 1.24004 6.94666 1.61337L2.99332 3.90004C2.34666 4.27337 1.94666 4.96671 1.94666 5.72004V10.28C1.94666 11.0267 2.34666 11.72 2.99332 12.1L6.95332 14.3867C7.59999 14.76 8.39999 14.76 9.05332 14.3867L13.0133 12.1C13.66 11.7267 14.06 11.0334 14.06 10.28V5.72004C14.0533 4.96671 13.6533 4.28004 13.0067 3.90004ZM7.99999 4.89337C8.85999 4.89337 9.55332 5.58671 9.55332 6.44671C9.55332 7.30671 8.85999 8.00004 7.99999 8.00004C7.13999 8.00004 6.44666 7.30671 6.44666 6.44671C6.44666 5.59337 7.13999 4.89337 7.99999 4.89337ZM9.78666 11.1067H6.21332C5.67332 11.1067 5.35999 10.5067 5.65999 10.06C6.11332 9.38671 6.99332 8.93337 7.99999 8.93337C9.00666 8.93337 9.88666 9.38671 10.34 10.06C10.64 10.5 10.32 11.1067 9.78666 11.1067Z" fill="#0F191A"/>
</svg>
