<svg width="16" height="16" viewBox="0 0 16 16" fill="none" xmlns="http://www.w3.org/2000/svg">
<path d="M13.94 7.41338V4.48671C13.94 3.94005 13.5267 3.32005 13.0134 3.11338L9.30003 1.59338C8.46669 1.25338 7.52669 1.25338 6.69336 1.59338L2.98003 3.11338C2.47336 3.32005 2.06003 3.94005 2.06003 4.48671V7.41338C2.06003 10.6734 4.42669 13.7267 7.66003 14.62C7.88003 14.68 8.12003 14.68 8.34003 14.62C11.5734 13.7267 13.94 10.6734 13.94 7.41338ZM8.50003 8.58005V10.3334C8.50003 10.6067 8.27336 10.8334 8.00003 10.8334C7.72669 10.8334 7.50003 10.6067 7.50003 10.3334V8.58005C6.82669 8.36671 6.33336 7.74005 6.33336 7.00005C6.33336 6.08005 7.08003 5.33338 8.00003 5.33338C8.92003 5.33338 9.66669 6.08005 9.66669 7.00005C9.66669 7.74671 9.17336 8.36671 8.50003 8.58005Z" fill="#0F191A"/>
</svg>
