<svg width="28" height="26" viewBox="0 0 28 26" fill="none" xmlns="http://www.w3.org/2000/svg">
<path d="M24.8001 9.29357C22.3867 9.29357 21.4001 7.58691 22.6001 5.49357C23.2934 4.28024 22.8801 2.73357 21.6667 2.04024L19.3601 0.720241C18.3067 0.0935741 16.9467 0.466908 16.3201 1.52024L16.1734 1.77357C14.9734 3.86691 13.0001 3.86691 11.7867 1.77357L11.6401 1.52024C11.0401 0.466908 9.68008 0.0935741 8.62675 0.720241L6.32008 2.04024C5.10675 2.73357 4.69341 4.29357 5.38675 5.50691C6.60008 7.58691 5.61341 9.29357 3.20008 9.29357C1.81341 9.29357 0.666748 10.4269 0.666748 11.8269V14.1736C0.666748 15.5602 1.80008 16.7069 3.20008 16.7069C5.61341 16.7069 6.60008 18.4136 5.38675 20.5069C4.69341 21.7202 5.10675 23.2669 6.32008 23.9602L8.62675 25.2802C9.68008 25.9069 11.0401 25.5336 11.6667 24.4802L11.8134 24.2269C13.0134 22.1336 14.9867 22.1336 16.2001 24.2269L16.3467 24.4802C16.9734 25.5336 18.3334 25.9069 19.3867 25.2802L21.6934 23.9602C22.9067 23.2669 23.3201 21.7069 22.6267 20.5069C21.4134 18.4136 22.4001 16.7069 24.8134 16.7069C26.2001 16.7069 27.3467 15.5736 27.3467 14.1736V11.8269C27.3334 10.4402 26.2001 9.29357 24.8001 9.29357ZM14.0001 17.3336C11.6134 17.3336 9.66675 15.3869 9.66675 13.0002C9.66675 10.6136 11.6134 8.66691 14.0001 8.66691C16.3867 8.66691 18.3334 10.6136 18.3334 13.0002C18.3334 15.3869 16.3867 17.3336 14.0001 17.3336Z" fill="#0F191A"/>
</svg>
